<?xml version="1.0" encoding="utf-8"?>
<!-- Generator: Adobe Illustrator 26.0.3, SVG Export Plug-In . SVG Version: 6.00 Build 0)  -->
<svg version="1.1" id="Laag_1" xmlns="http://www.w3.org/2000/svg" xmlns:xlink="http://www.w3.org/1999/xlink" x="0px" y="0px"
	 viewBox="0 0 300 300" style="enable-background:new 0 0 300 300;" xml:space="preserve">
<style type="text/css">
	.st0{fill:#1D1D1F;}
	.st1{fill:#BEB7AD;}
	.st2{clip-path:url(#SVGID_00000092450914223359106400000001670349138325484447_);}
	.st3{fill:#F89144;}
</style>
<g id="Ellipse_2">
	<circle class="st0" cx="149.54" cy="150.11" r="150"/>
	<path class="st1" d="M149.54,299.91c-82.6,0-149.8-67.2-149.8-149.8c0-82.6,67.2-149.8,149.8-149.8s149.8,67.2,149.8,149.8
		C299.34,232.71,232.14,299.91,149.54,299.91z M149.54,2.94C68.39,2.94,2.37,68.96,2.37,150.11c0,81.15,66.02,147.17,147.17,147.17
		c81.15,0,147.17-66.02,147.17-147.17C296.7,68.96,230.68,2.94,149.54,2.94z"/>
</g>
<g id="Group_145" transform="translate(16 16)">
	<g>
		<defs>
			<rect id="SVGID_1_" x="7.78" y="8.35" width="251.52" height="251.52"/>
		</defs>
		<clipPath id="SVGID_00000085214421387689411110000001901788427459863200_">
			<use xlink:href="#SVGID_1_"  style="overflow:visible;"/>
		</clipPath>
		<g id="Group_144" transform="translate(0)" style="clip-path:url(#SVGID_00000085214421387689411110000001901788427459863200_);">
			<path id="Path_250" class="st3" d="M7.78,134.1c-0.03,69.47,56.27,125.82,125.75,125.84s125.82-56.27,125.84-125.75
				S203.09,8.38,133.62,8.35c-0.03,0-0.06,0-0.1,0V134.1h0.03l-0.03,0.03v-0.03H7.78z"/>
		</g>
	</g>
</g>
</svg>
