<?xml version="1.0" encoding="utf-8"?>
<!-- Generator: Adobe Illustrator 26.0.3, SVG Export Plug-In . SVG Version: 6.00 Build 0)  -->
<svg version="1.1" id="Laag_1" xmlns="http://www.w3.org/2000/svg" xmlns:xlink="http://www.w3.org/1999/xlink" x="0px" y="0px"
	 viewBox="0 0 282 577" style="enable-background:new 0 0 282 577;" xml:space="preserve">
<style type="text/css">
	.st0{fill:none;}
	.st1{fill:#BEB7AD;}
</style>
<g id="Group_30" transform="translate(-857 -80)">
	<g id="Subtraction_1" transform="translate(857 80)">
		<path class="st0" d="M267,577H15c-8.28,0-15-6.72-15-15c0,0,0,0,0,0V15C0,6.72,6.72,0,15,0h63.12v7.61c0,8.28,6.72,15,15,15h95.77
			c8.28,0,15-6.72,15-15V0H267c8.28,0,15,6.72,15,15v547C282,570.28,275.28,577,267,577L267,577z"/>
		<path class="st1" d="M267,575c3.47,0,6.74-1.35,9.19-3.81c2.46-2.46,3.81-5.72,3.81-9.19V15c0-3.47-1.35-6.74-3.81-9.19
			C273.74,3.35,270.47,2,267,2h-61.12v5.61c0,4.54-1.77,8.81-4.98,12.02c-3.21,3.21-7.48,4.98-12.02,4.98H93.12
			c-4.54,0-8.81-1.77-12.02-4.98c-3.21-3.21-4.98-7.48-4.98-12.02V2H15c-3.47,0-6.74,1.35-9.19,3.81S2,11.53,2,15v547
			c0,3.47,1.35,6.74,3.81,9.19C8.26,573.65,11.53,575,15,575H267 M267,577H15c-4.01,0-7.77-1.56-10.61-4.39
			C1.56,569.77,0,566.01,0,562V15c0-4.01,1.56-7.77,4.39-10.61C7.23,1.56,10.99,0,15,0h63.12v7.61c0,4.01,1.56,7.77,4.39,10.61
			c2.83,2.83,6.6,4.39,10.61,4.39h95.77c4.01,0,7.77-1.56,10.61-4.39c2.83-2.83,4.39-6.6,4.39-10.61V0H267
			c4.01,0,7.77,1.56,10.61,4.39C280.44,7.23,282,10.99,282,15v547c0,4.01-1.56,7.77-4.39,10.61C274.77,575.44,271.01,577,267,577z"
			/>
	</g>
	<path id="Rectangle_9" class="st1" d="M943.5,637h108c1.38,0,2.5,1.12,2.5,2.5l0,0c0,1.38-1.12,2.5-2.5,2.5h-108
		c-1.38,0-2.5-1.12-2.5-2.5l0,0C941,638.12,942.12,637,943.5,637z"/>
</g>
</svg>
