<?xml version="1.0" encoding="utf-8"?>
<!-- Generator: Adobe Illustrator 26.0.3, SVG Export Plug-In . SVG Version: 6.00 Build 0)  -->
<svg version="1.1" id="Laag_1" xmlns="http://www.w3.org/2000/svg" xmlns:xlink="http://www.w3.org/1999/xlink" x="0px" y="0px"
	 viewBox="0 0 1159.18 524.1" style="enable-background:new 0 0 1159.18 524.1;" xml:space="preserve">
<style type="text/css">
	.st0{opacity:0.2;}
	.st1{fill:#BFB7AC;}
</style>
<g class="st0">
	<path class="st1" d="M56.13,344.7c-5.84-3.06-12.35-4.62-18.94-4.54H0V521.6h37.19c6.63,0.12,13.18-1.44,19.05-4.54
		c5.48-2.92,10.07-7.27,13.27-12.59c3.25-5.36,4.94-11.53,4.88-17.8V375.09c0.06-6.27-1.63-12.44-4.88-17.8
		C66.29,351.95,61.66,347.59,56.13,344.7z M44.34,493.7c-1.86,1.95-4.45,3.02-7.15,2.95h-9.98V365.11h9.75c2.56,0,5,1.02,6.8,2.84
		c1.96,1.89,3.17,4.43,3.4,7.14l0.01,111.58C47.21,489.3,46.19,491.83,44.34,493.7z"/>
	<path class="st1" d="M351.82,306.11c9.48-5.05,17.42-12.58,22.96-21.78c5.62-9.28,8.55-19.95,8.44-30.8V60.44
		c0.11-10.85-2.82-21.52-8.44-30.81c-5.58-9.24-13.59-16.77-23.16-21.78c-10.1-5.3-21.36-8-32.77-7.85H254.5v313.95h64.36
		C331.15,313.95,342.14,311.34,351.82,306.11z M301.59,43.17h16.87c4.42-0.01,8.66,1.76,11.77,4.91c3.4,3.27,5.49,7.66,5.89,12.36
		v193.08c0.07,4.55-1.7,8.93-4.9,12.16c-3.21,3.38-7.71,5.23-12.36,5.1h-17.27V43.17z"/>
	<polygon class="st1" points="500.16,270.79 441.29,270.79 441.29,172.68 500.16,172.68 500.16,129.51 441.29,129.51 441.29,43.17 
		500.16,43.17 500.16,0.01 394.2,0.01 394.2,313.95 500.16,313.95 	"/>
	<path class="st1" d="M556.67,196.22h12.56l26.69,117.73h50.23l-35.71-128.33c8.11-5.23,14.94-12.2,20.02-20.41
		c5.23-8.37,7.85-18.18,7.85-29.43V60.44c0.11-10.85-2.82-21.52-8.44-30.81c-5.54-9.2-13.48-16.73-22.96-21.78
		c-9.68-5.23-20.67-7.85-32.97-7.85h-64.36v313.95h47.09V196.22z M556.67,43.17h17.27c9.26-0.28,16.99,7,17.27,16.26
		c0.01,0.34,0.01,0.67,0,1.01v75.35c0.07,4.55-1.7,8.93-4.9,12.16c-3.21,3.38-7.71,5.23-12.36,5.1h-17.27V43.17z"/>
	<polygon class="st1" points="748.56,270.79 697.55,270.79 697.55,0.01 650.46,0.01 650.46,313.95 748.56,313.95 	"/>
	<path class="st1" d="M803.9,264.51h29.83l4.32,49.45h47.09L842.36,0.01h-47.09l-42.78,313.95h47.09L803.9,264.51z M818.81,84.38
		l11.38,136.96h-22.76L818.81,84.38z"/>
	<polygon class="st1" points="937.42,132.61 976.18,313.95 1019.34,313.95 1019.34,0.01 972.25,0.01 974.51,181.36 935.75,0.01 
		892.59,0.01 892.59,313.95 939.68,313.95 	"/>
	<path class="st1" d="M1127.65,306.11c9.48-5.05,17.42-12.58,22.96-21.78c5.62-9.28,8.55-19.95,8.44-30.8V60.44
		c0.11-10.85-2.82-21.52-8.44-30.81c-5.58-9.24-13.59-16.77-23.15-21.78c-10.1-5.3-21.36-8-32.77-7.85h-64.36v313.95h64.36
		C1106.98,313.95,1117.97,311.34,1127.65,306.11z M1077.42,43.17h16.87c4.42-0.01,8.66,1.76,11.77,4.91
		c3.4,3.27,5.49,7.66,5.89,12.36v193.08c0.07,4.55-1.7,8.93-4.9,12.16c-3.21,3.38-7.71,5.23-12.36,5.1h-17.27L1077.42,43.17z"/>
	<polygon class="st1" points="79.92,522.29 141.16,522.29 141.16,497.34 107.14,497.34 107.14,440.64 141.16,440.64 141.16,415.7 
		107.14,415.7 107.14,365.8 141.16,365.8 141.16,340.86 79.92,340.86 	"/>
	<polygon class="st1" points="270.88,340.86 263.17,471.26 249.78,340.86 227.11,340.86 213.73,471.26 206.01,340.86 178.11,340.86 
		198.98,522.29 226.2,522.29 238.45,410.71 250.69,522.29 277.91,522.29 298.77,340.86 	"/>
	<path class="st1" d="M315.1,340.86l-24.72,181.43h27.21l2.5-28.58h17.24l2.49,28.58h27.22l-24.72-181.43H315.1z M322.13,468.77
		l6.58-79.15l6.58,79.15H322.13z"/>
	<path class="st1" d="M441.19,436.34c3.1-5.12,4.68-11.02,4.54-17.01v-43.54c0.06-6.27-1.63-12.44-4.88-17.8
		c-3.2-5.32-7.79-9.67-13.27-12.59c-5.87-3.09-12.42-4.65-19.05-4.54h-37.19v181.43h27.22v-68.04h7.26l15.42,68.04h29.03
		l-20.64-74.16C434.31,445.11,438.26,441.08,441.19,436.34z M418.51,375.79v43.54c0.04,2.63-0.98,5.16-2.84,7.03
		c-1.86,1.95-4.45,3.02-7.14,2.95h-9.98v-63.5h9.98c5.35-0.16,9.82,4.05,9.98,9.4C418.52,375.4,418.52,375.59,418.51,375.79z"/>
	<polygon class="st1" points="479.97,440.64 513.99,440.64 513.99,415.7 479.97,415.7 479.97,365.8 513.99,365.8 513.99,340.86 
		452.76,340.86 452.76,522.29 513.99,522.29 513.99,497.34 479.97,497.34 	"/>
	<polygon class="st1" points="603.79,340.86 580.21,415.7 580.21,340.86 552.99,340.86 552.99,522.29 580.21,522.29 580.21,443.82 
		603.79,522.29 631.01,522.29 600.85,429.53 631.01,340.86 	"/>
	<path class="st1" d="M657.99,340.86l-24.72,181.43h27.22l2.5-28.58h17.24l2.49,28.58h27.22l-24.72-181.43H657.99z M665.02,468.77
		l6.58-79.15l6.58,79.15H665.02z"/>
	<polygon class="st1" points="766.4,455.84 748.71,340.86 714.24,340.86 714.24,522.29 741.45,522.29 740.09,407.54 760.95,522.29 
		772.29,522.29 792.93,407.54 791.57,522.29 818.79,522.29 818.79,340.86 784.32,340.86 	"/>
	<path class="st1" d="M881.27,345.4L881.27,345.4c-5.84-3.07-12.35-4.63-18.94-4.54h-37.19v181.43h27.22v-56.7h9.98
		c6.59,0.09,13.1-1.47,18.94-4.54c5.53-2.89,10.16-7.24,13.38-12.58c3.25-5.36,4.94-11.53,4.88-17.8v-54.89
		c0.06-6.27-1.63-12.44-4.88-17.8C891.42,352.64,886.79,348.29,881.27,345.4z M869.47,437.7c-1.86,1.95-4.45,3.02-7.15,2.95h-9.98
		V365.8h9.98c5.35-0.16,9.82,4.05,9.98,9.4c0.01,0.19,0.01,0.39,0,0.58l0,54.89C872.35,433.3,871.32,435.83,869.47,437.7z"/>
	<rect x="904.96" y="340.86" class="st1" width="27.21" height="181.43"/>
	<path class="st1" d="M994.77,343.47L994.77,343.47c-11.98-5.9-26.01-5.9-37.99,0c-5.47,2.77-10.09,6.96-13.38,12.13
		c-3.26,5.15-4.95,11.14-4.88,17.23v117.48c-0.07,6.09,1.62,12.08,4.88,17.23c3.29,5.18,7.91,9.37,13.38,12.13
		c11.98,5.9,26.01,5.9,37.99,0c5.42-2.79,10-6.98,13.27-12.13c3.25-5.15,4.95-11.14,4.88-17.23V372.83
		c0.07-6.1-1.62-12.08-4.88-17.24C1004.77,350.45,1000.19,346.26,994.77,343.47z M985.7,490.31c0.06,2.44-0.98,4.77-2.84,6.35
		c-4.18,3.33-10.11,3.33-14.29,0c-1.85-1.58-2.9-3.91-2.83-6.35V372.83c-0.06-2.44,0.98-4.77,2.83-6.35
		c4.18-3.33,10.11-3.33,14.29,0c1.85,1.58,2.9,3.91,2.84,6.35V490.31z"/>
	<polygon class="st1" points="1019.26,522.29 1080.49,522.29 1080.49,497.34 1046.48,497.34 1046.48,440.64 1080.49,440.64 
		1080.49,415.7 1046.48,415.7 1046.48,365.8 1080.49,365.8 1080.49,340.86 1019.26,340.86 	"/>
	<polygon class="st1" points="1131.97,340.86 1133.27,445.66 1110.87,340.86 1085.93,340.86 1085.93,522.29 1113.14,522.29 
		1111.84,417.48 1134.24,522.29 1159.18,522.29 1159.18,340.86 	"/>
	<polygon class="st1" points="46.22,132.61 84.97,313.95 128.14,313.95 128.14,0.01 81.05,0.01 83.3,181.36 44.55,0.01 1.38,0.01 
		1.38,313.95 48.47,313.95 	"/>
	<polygon class="st1" points="245.08,270.78 186.22,270.78 186.22,172.68 245.08,172.68 245.08,129.51 186.22,129.51 186.22,43.17 
		245.08,43.17 245.08,0.01 139.13,0.01 139.13,313.95 245.08,313.95 	"/>
</g>
</svg>
