<?xml version="1.0" encoding="utf-8"?>
<!-- Generator: Adobe Illustrator 26.0.3, SVG Export Plug-In . SVG Version: 6.00 Build 0)  -->
<svg version="1.1" id="Laag_1" xmlns="http://www.w3.org/2000/svg" xmlns:xlink="http://www.w3.org/1999/xlink" x="0px" y="0px"
	 viewBox="0 0 528 170" style="enable-background:new 0 0 528 170;" xml:space="preserve">
<style type="text/css">
	.st0{fill:#4377D9;}
	.st1{fill:#F4E8D7;}
	.st2{font-family:'NeueMontreal-Regular';}
	.st3{font-size:18px;}
	.st4{font-family:'NeueMontreal-Italic';}
	.st5{font-size:25px;}
</style>
<g id="Group_171" transform="translate(-456 -1262)">
	<path id="Path_141" class="st0" d="M471,1262h498c8.3,0,15,6.7,15,15v140c0,8.3-6.7,15-15,15l0,0H471c-8.3,0-15-6.7-15-15l0,0v-140
		C456,1268.7,462.7,1262,471,1262z"/>
	<text transform="matrix(1 0 0 1 522.045 1306)" class="st1 st2 st3">INSTAGRAM</text>
	<text transform="matrix(1 0 0 1 481 1366)" class="st1 st4 st5">casdelang</text>
	<text transform="matrix(1 0 0 1 589.7986 1366)" class="st1 st2 st5">, </text>
	<text transform="matrix(1 0 0 1 599.7485 1366)" class="st1 st4 st5">michelvdput</text>
	<text transform="matrix(1 0 0 1 733.9208 1366)" class="st1 st2 st5"> en </text>
	<text transform="matrix(1 0 0 1 764.7959 1366)" class="st1 st4 st5">habetsdevon</text>
	<text transform="matrix(1 0 0 1 481 1401)" class="st1 st2 st5">vinden je foto leuk.</text>
	<text transform="matrix(1 0 0 1 933 1306)" class="st1 st2 st3">NU</text>
	<path id="Path_3" class="st1" d="M489.6,1299c0-2.4,1.9-4.3,4.3-4.3s4.3,1.9,4.3,4.3s-1.9,4.3-4.3,4.3S489.6,1301.4,489.6,1299
		L489.6,1299 M487.3,1299c0,3.7,3,6.6,6.6,6.6s6.6-3,6.6-6.6s-3-6.6-6.6-6.6l0,0C490.2,1292.4,487.3,1295.3,487.3,1299
		 M499.2,1292.1c0,0.8,0.7,1.5,1.5,1.6c0.9,0,1.5-0.7,1.5-1.5s-0.7-1.5-1.5-1.6l0,0l0,0C499.9,1290.6,499.2,1291.3,499.2,1292.1
		 M488.7,1309.5c-0.8,0-1.6-0.2-2.4-0.4c-1.1-0.4-2-1.3-2.4-2.4c-0.3-0.8-0.4-1.6-0.4-2.4c-0.1-1.4-0.1-1.8-0.1-5.2s0-3.8,0.1-5.2
		c0-0.8,0.2-1.6,0.4-2.4c0.4-1.1,1.3-2,2.4-2.4c0.8-0.3,1.6-0.4,2.4-0.4c1.4-0.1,1.8-0.1,5.2-0.1s3.8,0,5.2,0.1
		c0.8,0,1.6,0.2,2.4,0.4c1.1,0.4,2,1.3,2.4,2.4c0.3,0.8,0.4,1.6,0.4,2.4c0.1,1.4,0.1,1.8,0.1,5.2s0,3.8-0.1,5.2
		c0,0.8-0.2,1.6-0.4,2.4c-0.4,1.1-1.3,2-2.4,2.4c-0.8,0.3-1.6,0.4-2.4,0.4c-1.4,0.1-1.8,0.1-5.2,0.1S490,1309.5,488.7,1309.5
		 M488.6,1286.2c-1.1,0-2.1,0.2-3.1,0.6c-1.7,0.7-3.1,2-3.8,3.8c-0.4,1-0.6,2.1-0.6,3.1c-0.1,1.4-0.1,1.8-0.1,5.3s0,3.9,0.1,5.3
		c0,1.1,0.2,2.1,0.6,3.1c0.7,1.7,2,3.1,3.8,3.8c1,0.4,2.1,0.6,3.1,0.6c1.4,0.1,1.8,0.1,5.3,0.1s3.9,0,5.3-0.1c1.1,0,2.1-0.2,3.1-0.6
		c1.7-0.7,3.1-2,3.8-3.8c0.4-1,0.6-2.1,0.6-3.1c0.1-1.4,0.1-1.8,0.1-5.3s0-3.9-0.1-5.3c0-1.1-0.2-2.1-0.6-3.1
		c-0.7-1.7-2-3.1-3.8-3.8c-1-0.4-2.1-0.6-3.1-0.6c-1.4-0.1-1.8-0.1-5.3-0.1S489.9,1286.2,488.6,1286.2"/>
</g>
</svg>
