<?xml version="1.0" encoding="utf-8"?>
<!-- Generator: Adobe Illustrator 26.0.3, SVG Export Plug-In . SVG Version: 6.00 Build 0)  -->
<svg version="1.1" id="Laag_1" xmlns="http://www.w3.org/2000/svg" xmlns:xlink="http://www.w3.org/1999/xlink" x="0px" y="0px"
	 viewBox="0 0 48 32" style="enable-background:new 0 0 48 32;" xml:space="preserve">
<style type="text/css">
	.st0{clip-path:url(#SVGID_00000094605325467094767520000014128697609133217195_);}
	.st1{fill:#BFB7AC;}
</style>
<g>
	<defs>
		<rect id="SVGID_1_" x="0.16" y="0" width="47.76" height="32"/>
	</defs>
	<clipPath id="SVGID_00000040550638115508773780000010841869436757969059_">
		<use xlink:href="#SVGID_1_"  style="overflow:visible;"/>
	</clipPath>
	<g id="Group_140" style="clip-path:url(#SVGID_00000040550638115508773780000010841869436757969059_);">
		<path id="Path_239" class="st1" d="M27.48,11.8c0,0.37,0.27,0.54,0.87,0.54c0.21,0,0.42-0.02,0.62-0.07v-0.95
			c-0.21-0.06-0.42-0.08-0.63-0.08C27.76,11.24,27.48,11.42,27.48,11.8"/>
		<path id="Path_240" class="st1" d="M31.52,11.07c0,0.71,0.33,1.18,1.1,1.18c0.18,0,0.35-0.02,0.52-0.07V9.97
			C32.98,9.92,32.8,9.9,32.63,9.9C31.85,9.9,31.52,10.37,31.52,11.07"/>
		<path id="Path_241" class="st1" d="M17.8,8.39l0.05-0.05l0.73-0.74c0.48-0.43,0.78-1.02,0.83-1.67c-0.01-0.61-0.28-1.18-0.73-1.58
			l0,0L18.63,4.3L17.7,3.38c-0.98-0.98-2.15-0.99-3.24,0.1l-0.78,0.78c-0.48,0.43-0.78,1.02-0.83,1.67c0.01,0.6,0.27,1.18,0.72,1.58
			l0.98,0.98c0.96,0.96,2.1,0.99,3.18-0.04C17.76,8.42,17.78,8.41,17.8,8.39 M16.77,7.39c-0.44,0.44-0.81,0.45-1.2,0.06L14.62,6.5
			c-0.39-0.39-0.38-0.76,0.06-1.2l0.83-0.83c0.05-0.05,0.11-0.1,0.16-0.15c0.27-0.27,0.71-0.26,0.98,0.01
			c0.02,0.02,0.04,0.05,0.06,0.08l0.95,0.95c0.17,0.14,0.28,0.36,0.28,0.58c-0.03,0.24-0.15,0.46-0.34,0.62L16.77,7.39z"/>
		<path id="Path_242" class="st1" d="M9.84,15.42l-2.09-2.09c-0.03-0.03-0.06-0.05-0.09-0.07c-0.3-0.3-0.67-0.51-1.08-0.61
			c-0.78-0.12-1.57,0.18-2.08,0.79l-0.78,0.78c-0.48,0.43-0.78,1.03-0.83,1.67c0.01,0.6,0.28,1.18,0.73,1.58l2.09,2.09
			c0.11,0.12,0.26,0.21,0.42,0.24c0.4,0.06,0.77-0.21,0.83-0.61c0.04-0.24-0.05-0.49-0.23-0.65l-2.07-2.07
			c-0.05-0.05-0.09-0.09-0.13-0.15c-0.07-0.09-0.12-0.18-0.14-0.29c-0.01-0.05-0.02-0.1-0.01-0.15c0.03-0.23,0.15-0.45,0.33-0.6
			l0.01-0.02l0.83-0.83c0.03-0.03,0.06-0.05,0.09-0.08c0.24-0.3,0.69-0.35,0.99-0.11c0.05,0.04,0.09,0.08,0.12,0.13l0.97,0.97
			l1.1,1.1c0.24,0.3,0.67,0.35,0.97,0.11c0.03-0.02,0.05-0.05,0.08-0.07c0.07-0.07,0.12-0.15,0.16-0.23
			C10.16,15.95,10.08,15.62,9.84,15.42z"/>
		<path id="Path_243" class="st1" d="M46.94,13.95L33.98,0.98c-0.92-1.13-2.58-1.31-3.71-0.4c-0.15,0.12-0.28,0.25-0.4,0.4
			l-5.83,5.83l-5.83-5.83c-0.52-0.59-1.26-0.94-2.05-0.98c-0.79,0.04-1.53,0.39-2.05,0.98L1.15,13.95c-1.13,0.91-1.31,2.57-0.4,3.7
			c0.12,0.15,0.25,0.28,0.4,0.4l12.97,12.97c0.52,0.59,1.26,0.95,2.05,0.98c0.79-0.04,1.53-0.39,2.05-0.98l5.83-5.83l5.83,5.83
			c0.92,1.13,2.58,1.31,3.71,0.4c0.15-0.12,0.28-0.25,0.4-0.4l12.97-12.97c1.13-0.92,1.31-2.58,0.39-3.72
			C47.22,14.19,47.09,14.07,46.94,13.95 M16.9,18.05l6.7,6.7l-5.83,5.83c-0.41,0.48-0.99,0.76-1.61,0.8
			c-0.62-0.04-1.21-0.33-1.61-0.8L1.58,17.61c-0.48-0.41-0.77-0.99-0.8-1.61c0.04-0.62,0.33-1.21,0.8-1.61L14.55,1.42
			c0.41-0.47,0.99-0.76,1.61-0.8c0.62,0.04,1.21,0.32,1.61,0.8l5.83,5.83l-6.7,6.7c-1.13,0.92-1.31,2.58-0.39,3.72
			C16.63,17.8,16.76,17.93,16.9,18.05 M26.23,9.58l-0.02,0.07C26.2,9.7,26.19,9.76,26.16,9.8c-0.03,0.1-0.13,0.15-0.23,0.14
			c-0.11,0-0.28-0.03-0.5-0.03c-0.2,0-0.4,0.02-0.59,0.07v2.62c0,0.22-0.1,0.32-0.33,0.32h-0.23c-0.23,0-0.32-0.1-0.32-0.32V9.7
			c-0.02-0.19,0.12-0.37,0.31-0.4c0.38-0.11,0.77-0.16,1.16-0.16h0.06c0.16,0,0.32,0.01,0.48,0.02c0.15,0,0.28,0.12,0.28,0.28
			c0,0,0,0,0,0.01C26.24,9.49,26.24,9.53,26.23,9.58 M29.85,12.49c0,0.04,0,0.07-0.01,0.11c-0.03,0.17-0.15,0.23-0.3,0.27
			c-0.06,0.01-0.15,0.03-0.26,0.04C28.94,12.97,28.59,13,28.25,13c-1.03,0-1.65-0.39-1.65-1.2c-0.02-0.41,0.2-0.8,0.57-0.98
			c0.21-0.12,0.44-0.18,0.67-0.2h0.01c0.11-0.01,0.22-0.02,0.33-0.02c0.27,0,0.54,0.03,0.8,0.09v-0.11c0-0.46-0.23-0.72-0.83-0.72
			c-0.25,0-0.5,0.05-0.74,0.13c-0.05,0.02-0.1,0.03-0.15,0.04h-0.02c-0.12,0-0.19-0.07-0.25-0.23l-0.02-0.06l-0.01-0.01
			c-0.02-0.05-0.03-0.1-0.03-0.15c0.01-0.12,0.09-0.22,0.2-0.26c0.37-0.12,0.77-0.18,1.16-0.18c1.03,0,1.55,0.44,1.55,1.53
			L29.85,12.49z M33.42,24.22c0.06,0.82-0.56,1.54-1.38,1.6c-0.82,0.06-1.54-0.56-1.6-1.38c-0.01-0.07-0.01-0.14,0-0.22v-8.21
			c-0.04-0.51,0.18-1.01,0.59-1.32c0.17-0.13,0.37-0.22,0.59-0.25c0.1-0.02,0.21-0.03,0.32-0.02c0.8-0.03,1.47,0.59,1.5,1.38
			c0,0.07,0,0.15-0.01,0.22L33.42,24.22z M34.03,12.47c0.02,0.19-0.11,0.36-0.3,0.4C33.38,12.96,33.01,13,32.65,13
			c-0.98,0.13-1.88-0.56-2.01-1.54c-0.02-0.13-0.02-0.26-0.01-0.38c-0.1-0.98,0.61-1.85,1.59-1.94c0.1-0.01,0.2-0.01,0.3,0
			c0.21,0,0.42,0.02,0.63,0.08V8.03c0-0.23,0.09-0.32,0.32-0.32h0.23c0.23,0,0.32,0.09,0.32,0.32L34.03,12.47z M35.87,12.61
			c0,0.22-0.09,0.32-0.32,0.32h-0.24c-0.23,0-0.33-0.1-0.33-0.32V9.53c0-0.23,0.1-0.32,0.33-0.32h0.23c0.23,0,0.33,0.09,0.33,0.32
			L35.87,12.61z M35.43,8.69c-0.29-0.01-0.52-0.25-0.51-0.54c0.01-0.29,0.25-0.52,0.54-0.51c0.29,0.01,0.52,0.24,0.51,0.53
			c0.01,0.28-0.21,0.52-0.49,0.53C35.46,8.69,35.45,8.69,35.43,8.69 M38.62,13c-0.95,0.07-1.78-0.65-1.85-1.6
			c-0.01-0.11-0.01-0.22,0.01-0.33c-0.03-0.53,0.15-1.05,0.5-1.44c0.36-0.34,0.85-0.52,1.34-0.5c0.96-0.07,1.78,0.66,1.85,1.61
			c0.01,0.11,0,0.22-0.01,0.32c0.11,0.95-0.57,1.81-1.52,1.93C38.84,13.01,38.73,13.01,38.62,13"/>
		<path id="Path_244" class="st1" d="M12.77,8.31c-0.98-0.98-2.15-0.99-3.24,0.1L9.48,8.46L8.75,9.19C8.5,9.43,8.29,9.72,8.13,10.02
			c-0.13,0.26-0.2,0.54-0.21,0.84c0,0.14,0.01,0.28,0.04,0.41c0.11,0.45,0.35,0.85,0.69,1.17l3.16,3.15c0.08,0.09,0.19,0.16,0.3,0.2
			c0.26,0.1,0.55,0.04,0.74-0.16c0.01-0.01,0.01-0.01,0.02-0.02c0.14-0.13,0.22-0.31,0.22-0.5c0-0.1-0.02-0.19-0.06-0.28
			c-0.05-0.1-0.12-0.2-0.2-0.28l-0.73-0.72c0.28-0.09,0.53-0.25,0.73-0.48l0.83-0.83c0.01-0.01,0.02-0.03,0.03-0.04
			c1.06-1.08,1.03-2.24,0.07-3.21L12.77,8.31z M12.66,11.49l-0.83,0.83c-0.44,0.44-0.81,0.45-1.2,0.06l-0.95-0.95
			c-0.17-0.14-0.28-0.36-0.28-0.58c0.03-0.24,0.15-0.46,0.34-0.62l0.83-0.83c0.44-0.44,0.81-0.45,1.2-0.06l0.95,0.95
			c0.17,0.14,0.28,0.36,0.28,0.58C12.97,11.12,12.85,11.34,12.66,11.49"/>
		<path id="Path_245" class="st1" d="M38.62,9.89c-0.61,0-0.95,0.42-0.95,1.18s0.34,1.18,0.95,1.18c0.61,0,0.95-0.42,0.95-1.18
			C39.57,10.31,39.23,9.89,38.62,9.89"/>
	</g>
</g>
</svg>
