<?xml version="1.0" encoding="utf-8"?>
<!-- Generator: Adobe Illustrator 26.0.3, SVG Export Plug-In . SVG Version: 6.00 Build 0)  -->
<svg version="1.1" id="Laag_1" xmlns="http://www.w3.org/2000/svg" xmlns:xlink="http://www.w3.org/1999/xlink" x="0px" y="0px"
	 viewBox="0 0 113.43 17.51" style="enable-background:new 0 0 113.43 17.51;" xml:space="preserve">
<style type="text/css">
	.st0{fill:#1D1D1F;}
</style>
<path id="Path_258" class="st0" d="M0.01,17.5V7.84c-0.14-1.2,0.72-2.28,1.91-2.42c0.15-0.02,0.3-0.02,0.45-0.01h7.29v2.29h-7.1
	v9.79H0.01z M13.43,7.73v7.48h7.12v2.29h-7.29c-1.2,0.11-2.26-0.77-2.37-1.97c-0.01-0.15-0.01-0.3,0.01-0.45V3h2.54v2.42h7.12v2.29
	h-7.12V7.73z M24.31,15.21h7.12v2.29h-7.29c-1.2,0.11-2.26-0.77-2.37-1.97c-0.01-0.15-0.01-0.3,0.01-0.45V5.42h2.54V15.21z"/>
<path id="Path_259" class="st0" d="M46.7,14.15c0,0.74,0.15,1.06,0.85,1.06h0.11v2.29h-7.02v-2.29h0.26c0.76,0,1.02-0.27,1.02-1.06
	V9.93c0-1.32-0.49-1.93-1.5-1.93c-1.1,0-1.76,0.85-1.76,2.61v3.54c0,0.78,0.17,1.06,1.02,1.06h0.26v2.29h-7.04v-2.29h0.23
	c0.61,0,0.78-0.32,0.78-1.06V9.34c0-1.1-0.47-1.4-0.95-1.4h-0.06V5.42h5.62v2.84c0.47-1.91,2.23-3.22,4.2-3.12
	c2.44,0,3.92,1.42,3.92,4.45v4.56 M54.06,14.15c0,0.74,0.17,1.06,0.78,1.06h0.34v2.29h-6.87v-2.29h0.23c0.61,0,0.78-0.32,0.78-1.06
	V9.11c0-1.19-0.47-1.4-0.95-1.4h-0.06V5.42h5.75L54.06,14.15z M49.13,2.47c0-1.34,1.08-2.42,2.42-2.42s2.42,1.08,2.42,2.42
	c-0.03,1.34-1.13,2.4-2.47,2.37C50.2,4.82,49.15,3.77,49.13,2.47 M62.41,17.76c-4.18,0-6.7-2.2-6.7-6.3v-0.02
	c0-4.11,2.86-6.3,6.36-6.3c3.63,0,5.7,1.91,5.7,5.68v1.25h-7.23v0.11c0.15,2.16,1.27,2.71,3.62,2.71c1.2-0.02,2.37-0.33,3.43-0.91
	v2.01C66.15,17.23,64.3,17.86,62.41,17.76 M60.54,10.2h3.03V9.93c0-1.91-0.36-2.8-1.36-2.8C61.15,7.11,60.65,7.92,60.54,10.2
	 M77.29,9.04c0-1.12-0.47-1.32-1.19-1.32h-0.06V5.42h5.98v8.8c0,0.7,0.36,0.98,0.85,0.98h0.3v2.29h-5.64v-2.44
	c-0.59,1.77-2.31,2.9-4.16,2.74c-2.57,0-3.97-1.42-3.97-4.45v-4.3c0-1.06-0.32-1.32-0.81-1.32h-0.05V5.44h5.6v7.82
	c0,1.32,0.47,1.91,1.46,1.91c1.1,0,1.68-0.76,1.68-2.1V9.04 M92.8,10.68l-1.82,6.81h-4.45l-2.1-8.57c-0.19-0.83-0.59-0.98-0.87-0.98
	h-0.11V5.42h6.43v2.52h-0.1c-1.06,0-1.1,0.27-0.91,1.34l0.89,4.54l2.08-8.4h3.43l2.23,8.14l0.95-4.28c0.25-1.06,0-1.34-0.85-1.34
	h-0.1V5.42h4.6v2.52h-0.15c-0.3,0-0.57,0.19-0.78,1.06l-2.1,8.5h-4.43L92.8,10.68 M105.35,16.4l-0.4,1.1h-2.21v-3.75h2.46
	c0.38,1.18,1.54,1.92,2.76,1.78c0.87,0,1.57-0.32,1.57-0.98c0-0.7-0.43-0.85-1.12-0.95c-1.33-0.03-2.64-0.29-3.88-0.78
	c-1.28-0.68-2.02-2.07-1.87-3.52c0-3.27,2.8-4.18,4.68-4.18c1.18-0.14,2.35,0.34,3.09,1.27l0.36-0.98h2.12v3.46h-2.37
	c-0.39-1.03-1.4-1.69-2.5-1.65c-0.81,0-1.53,0.28-1.53,1.06c0,0.57,0.4,0.87,0.98,0.98c1.41,0.09,2.8,0.38,4.13,0.85
	c1.32,0.6,2.12,1.98,1.99,3.43c0,2.82-1.91,4.2-4.85,4.2C106.85,17.76,105.9,17.13,105.35,16.4"/>
</svg>
