<?xml version="1.0" encoding="utf-8"?>
<!-- Generator: Adobe Illustrator 26.0.3, SVG Export Plug-In . SVG Version: 6.00 Build 0)  -->
<svg version="1.1" id="Laag_1" xmlns="http://www.w3.org/2000/svg" xmlns:xlink="http://www.w3.org/1999/xlink" x="0px" y="0px"
	 viewBox="0 0 45.3 48.89" style="enable-background:new 0 0 45.3 48.89;" xml:space="preserve">
<style type="text/css">
	.st0{clip-path:url(#SVGID_00000129182721935689118690000018109595749723831947_);}
	.st1{fill:#F4E8D7;}
</style>
<g>
	<defs>
		<rect id="SVGID_1_" width="45.3" height="48.89"/>
	</defs>
	<clipPath id="SVGID_00000106136449512705556080000015278981155341268134_">
		<use xlink:href="#SVGID_1_"  style="overflow:visible;"/>
	</clipPath>
	<g id="Group_191" style="clip-path:url(#SVGID_00000106136449512705556080000015278981155341268134_);">
		<path id="Path_287" class="st1" d="M33.94,32.37c1.6,0,3.62-0.03,5.05,1.87c0.82,1.25,1.21,2.73,1.1,4.21
			c0,6.02-3.85,6.17-6.65,6.23h-1.6V32.35L33.94,32.37z M26.55,27.94v20.95h8.25c2.19-0.03,8.04-0.15,9.97-6.62
			c0.37-1.31,0.55-2.67,0.53-4.04c0.15-2.92-0.93-5.76-2.99-7.83c-2.67-2.38-6.53-2.43-9.08-2.46L26.55,27.94z M0,27.94h6.02
			l4.51,7.19c0.24-0.55,0.53-1.07,0.86-1.57l3.6-5.61h5.97l-7.93,11.04v9.92H7.86v-9.77L0,27.94 M44.45,0v11.69
			c-0.03,2.02-0.06,4.04-1.21,5.93c-2.26,3.62-6.91,3.79-7.8,3.79c-1.69,0-3.35-0.38-4.87-1.12c-4.04-2.08-4.04-5.76-4-8.6V0h5.28
			v13.06c-0.08,0.89,0.05,1.78,0.39,2.61c0.81,1.03,2.09,1.57,3.38,1.43c3.56,0,3.56-2.43,3.6-4.07V0H44.45 M2.53,0h16.92v4.1
			L8.03,16.83h11.36v4.13H1.55v-3.92L13.16,4.1H2.53V0"/>
	</g>
</g>
</svg>
